<?xml version="1.0" encoding="UTF-8"?>
<!DOCTYPE svg PUBLIC "-//W3C//DTD SVG 1.1//EN" "http://www.w3.org/Graphics/SVG/1.1/DTD/svg11.dtd">
<svg xmlns="http://www.w3.org/2000/svg" version="1.1" width="2406px" height="579px" style="shape-rendering:geometricPrecision; text-rendering:geometricPrecision; image-rendering:optimizeQuality; fill-rule:evenodd; clip-rule:evenodd" xmlns:xlink="http://www.w3.org/1999/xlink">
<g><path style="opacity:0.996" fill="#262626" d="M -0.5,-0.5 C 55.8333,-0.5 112.167,-0.5 168.5,-0.5C 174.234,1.97524 178.734,5.97524 182,11.5C 230.825,101.821 280.159,191.821 330,281.5C 330.5,237.501 330.667,193.501 330.5,149.5C 322.209,148.448 313.876,147.781 305.5,147.5C 305.5,98.5 305.5,49.5 305.5,0.5C 373.167,0.5 440.833,0.5 508.5,0.5C 508.833,49.1712 508.5,97.8379 507.5,146.5C 499.219,147.828 490.886,148.828 482.5,149.5C 482.5,292.5 482.5,435.5 482.5,578.5C 434.5,578.5 386.5,578.5 338.5,578.5C 335.505,576.902 332.671,574.902 330,572.5C 326.606,568.102 323.606,563.435 321,558.5C 273.175,469.513 224.841,380.847 176,292.5C 175.5,337.499 175.333,382.499 175.5,427.5C 184.156,428.299 192.822,428.966 201.5,429.5C 201.5,479.167 201.5,528.833 201.5,578.5C 134.167,578.5 66.8333,578.5 -0.5,578.5C -0.5,528.833 -0.5,479.167 -0.5,429.5C 7.1927,429.073 14.8594,428.407 22.5,427.5C 22.5,334.833 22.5,242.167 22.5,149.5C 14.8615,148.54 7.1948,147.874 -0.5,147.5C -0.5,98.1667 -0.5,48.8333 -0.5,-0.5 Z"/></g>
<g><path style="opacity:0.995" fill="#262626" d="M 558.5,-0.5 C 668.167,-0.5 777.833,-0.5 887.5,-0.5C 892.518,1.17822 897.185,3.67822 901.5,7C 918.304,24.8049 935.471,42.3049 953,59.5C 957.712,64.5434 962.045,69.8767 966,75.5C 967.725,78.674 969.058,82.0073 970,85.5C 971.117,108.808 971.617,132.142 971.5,155.5C 971.333,175.833 971.167,196.167 971,216.5C 970.5,225.163 967.5,232.83 962,239.5C 946.471,255.362 930.638,270.862 914.5,286C 930.362,301.529 945.862,317.362 961,333.5C 967.125,341.085 970.459,349.752 971,359.5C 971.667,400.833 971.667,442.167 971,483.5C 970.276,491.275 967.609,498.275 963,504.5C 952.626,515.872 942.626,527.539 933,539.5C 923.396,550.109 912.896,559.609 901.5,568C 891.969,573.231 881.969,576.731 871.5,578.5C 858.5,578.5 845.5,578.5 832.5,578.5C 827.684,577.674 822.684,577.174 817.5,577C 729.834,576.5 642.167,576.333 554.5,576.5C 554.5,526.833 554.5,477.167 554.5,427.5C 562.839,426.899 571.172,426.233 579.5,425.5C 579.5,333.167 579.5,240.833 579.5,148.5C 571.184,147.635 562.851,146.968 554.5,146.5C 554.5,97.8333 554.5,49.1667 554.5,0.5C 556.099,0.767809 557.432,0.434475 558.5,-0.5 Z M 729.5,148.5 C 760.833,148.5 792.167,148.5 823.5,148.5C 823.5,169.5 823.5,190.5 823.5,211.5C 792.167,211.5 760.833,211.5 729.5,211.5C 729.5,190.5 729.5,169.5 729.5,148.5 Z M 728.5,363.5 C 760.167,363.5 791.833,363.5 823.5,363.5C 823.5,383.833 823.5,404.167 823.5,424.5C 791.833,424.5 760.167,424.5 728.5,424.5C 728.5,404.167 728.5,383.833 728.5,363.5 Z"/></g>
<g><path style="opacity:0.997" fill="#262626" d="M 1022.5,-0.5 C 1077.17,-0.5 1131.83,-0.5 1186.5,-0.5C 1192.96,2.11848 1198.13,6.45181 1202,12.5C 1250.41,102.326 1299.08,191.993 1348,281.5C 1348.5,237.501 1348.67,193.501 1348.5,149.5C 1340.2,148.473 1331.87,147.806 1323.5,147.5C 1323.5,98.5 1323.5,49.5 1323.5,0.5C 1391.17,0.5 1458.83,0.5 1526.5,0.5C 1526.5,49.5 1526.5,98.5 1526.5,147.5C 1517.48,147.963 1508.48,148.63 1499.5,149.5C 1499.5,292.5 1499.5,435.5 1499.5,578.5C 1451.83,578.5 1404.17,578.5 1356.5,578.5C 1351.19,575.356 1347.02,571.023 1344,565.5C 1294.67,474.167 1245.33,382.833 1196,291.5C 1195.5,336.832 1195.33,382.165 1195.5,427.5C 1203.83,427.884 1212.16,428.218 1220.5,428.5C 1220.5,478.167 1220.5,527.833 1220.5,577.5C 1152.83,577.5 1085.17,577.5 1017.5,577.5C 1017.33,528.499 1017.5,479.499 1018,430.5C 1026.42,429.175 1034.92,428.175 1043.5,427.5C 1043.5,334.833 1043.5,242.167 1043.5,149.5C 1034.87,148.413 1026.21,147.746 1017.5,147.5C 1017.5,98.5 1017.5,49.5 1017.5,0.5C 1019.41,0.784479 1021.08,0.451145 1022.5,-0.5 Z"/></g>
<g><path style="opacity:0.996" fill="#e25000" d="M 1657.5,-0.5 C 1730.83,-0.5 1804.17,-0.5 1877.5,-0.5C 1884.57,1.03325 1890.9,4.19992 1896.5,9C 1917.03,29.1949 1937.2,49.6949 1957,70.5C 1960.39,74.6087 1962.72,79.2754 1964,84.5C 1965.65,147.464 1965.98,210.464 1965,273.5C 1964.2,276.893 1963.2,280.226 1962,283.5C 1958.77,289.399 1954.77,294.732 1950,299.5C 1932.5,318.333 1914.33,336.5 1895.5,354C 1890.72,357.721 1885.39,360.388 1879.5,362C 1826.53,363.474 1773.53,363.974 1720.5,363.5C 1720.5,385.167 1720.5,406.833 1720.5,428.5C 1752.83,428.5 1785.17,428.5 1817.5,428.5C 1817.5,416.5 1817.5,404.5 1817.5,392.5C 1866.5,392.5 1915.5,392.5 1964.5,392.5C 1964.5,454.5 1964.5,516.5 1964.5,578.5C 1833.5,578.5 1702.5,578.5 1571.5,578.5C 1571.33,487.833 1571.5,397.166 1572,306.5C 1573.58,300.008 1576.25,294.008 1580,288.5C 1604.91,265.587 1630.41,243.42 1656.5,222C 1660.93,219.449 1665.6,217.449 1670.5,216C 1719.15,214.833 1767.82,214 1816.5,213.5C 1816.5,192.167 1816.5,170.833 1816.5,149.5C 1783.83,149.5 1751.17,149.5 1718.5,149.5C 1718.5,161.833 1718.5,174.167 1718.5,186.5C 1669.5,186.5 1620.5,186.5 1571.5,186.5C 1571.33,150.832 1571.5,115.165 1572,79.5C 1594.44,53.7294 1618.27,29.2294 1643.5,6C 1648.03,3.33271 1652.7,1.16604 1657.5,-0.5 Z"/></g>
<g><path style="opacity:0.996" fill="#e25000" d="M 2098.5,-0.5 C 2171.17,-0.5 2243.83,-0.5 2316.5,-0.5C 2322.79,1.47678 2328.79,4.31011 2334.5,8C 2358.34,30.3389 2382.01,52.8389 2405.5,75.5C 2405.5,128.167 2405.5,180.833 2405.5,233.5C 2404.53,233.987 2403.53,234.487 2402.5,235C 2385.63,252.041 2368.63,268.875 2351.5,285.5C 2369.18,305.844 2387.18,325.844 2405.5,345.5C 2405.5,396.833 2405.5,448.167 2405.5,499.5C 2381.01,523.827 2356.34,547.993 2331.5,572C 2326.63,574.774 2321.63,576.941 2316.5,578.5C 2244.17,578.5 2171.83,578.5 2099.5,578.5C 2093.4,576.731 2087.73,573.898 2082.5,570C 2064,551.5 2045.5,533 2027,514.5C 2022.29,509.457 2017.95,504.123 2014,498.5C 2013.33,496.5 2012.67,494.5 2012,492.5C 2011.5,458.835 2011.33,425.168 2011.5,391.5C 2060.5,391.5 2109.5,391.5 2158.5,391.5C 2158.88,403.531 2159.55,415.531 2160.5,427.5C 2192.83,427.5 2225.17,427.5 2257.5,427.5C 2257.5,405.833 2257.5,384.167 2257.5,362.5C 2231.49,362.213 2205.49,362.546 2179.5,363.5C 2165.59,363.76 2158.93,356.927 2159.5,343C 2160.48,299.846 2160.81,256.679 2160.5,213.5C 2192.5,213.5 2224.5,213.5 2256.5,213.5C 2256.5,191.5 2256.5,169.5 2256.5,147.5C 2226.51,146.321 2196.51,146.487 2166.5,148C 2163.57,150.264 2161.4,153.098 2160,156.5C 2159.5,166.161 2159.33,175.828 2159.5,185.5C 2110.17,185.5 2060.83,185.5 2011.5,185.5C 2011.33,150.832 2011.5,116.165 2012,81.5C 2013,79.5 2014,77.5 2015,75.5C 2036.8,52.6948 2058.97,30.1948 2081.5,8C 2086.71,4.06067 2092.38,1.22734 2098.5,-0.5 Z"/></g>
</svg>
